<svg width="28" height="28" viewBox="0 0 28 28" fill="none" xmlns="http://www.w3.org/2000/svg">
<path d="M4.66667 6.99998L11.7927 12.3806L11.795 12.383C12.586 12.9628 12.9815 13.2533 13.4155 13.3653C13.7989 13.4645 14.2011 13.4645 14.5845 13.3653C15.0185 13.2533 15.4152 12.9628 16.2085 12.3806C16.2085 12.3806 20.7783 8.87365 23.3333 6.99998M3.5 18.4333V9.56665C3.5 8.25998 3.5 7.60665 3.75433 7.10731C3.97833 6.66748 4.33417 6.31165 4.774 6.08765C5.27333 5.83331 5.92667 5.83331 7.23333 5.83331H20.7667C22.0733 5.83331 22.7267 5.83331 23.2248 6.08765C23.6647 6.31165 24.0217 6.66748 24.2457 7.10731C24.5 7.60548 24.5 8.25881 24.5 9.56315V18.438C24.5 19.7423 24.5 20.3933 24.2457 20.8926C24.0215 21.3318 23.6642 21.6887 23.2248 21.9123C22.7267 22.1666 22.0745 22.1666 20.7702 22.1666H7.22983C5.9255 22.1666 5.27217 22.1666 4.774 21.9123C4.33497 21.6886 3.97803 21.3317 3.75433 20.8926C3.5 20.3933 3.5 19.74 3.5 18.4333Z" stroke="#D9D9D9" stroke-width="2" stroke-linecap="round" stroke-linejoin="round"/>
</svg>
