<svg width="86" height="16" viewBox="0 0 86 16" fill="none" xmlns="http://www.w3.org/2000/svg">
<path d="M13.2481 10.821C13.2481 13.278 11.4211 15 8.14507 15H0.396066V0.0479997H7.72507C11.0011 0.0479997 12.8281 1.623 12.8281 4.08C12.8281 5.718 12.0091 6.936 10.3291 7.314C12.2821 7.671 13.2481 9.036 13.2481 10.821ZM9.86707 10.548C9.86707 9.33 9.15307 8.616 7.74607 8.616H3.77707V12.48H7.74607C9.15307 12.48 9.86707 11.766 9.86707 10.548ZM9.44707 4.353C9.44707 3.135 8.73307 2.568 7.32607 2.568H3.77707V6.138H7.32607C8.73307 6.138 9.44707 5.571 9.44707 4.353ZM18.4236 15.21C15.8406 15.21 14.4756 13.929 14.4756 11.934C14.4756 10.254 15.4416 8.889 18.2136 8.658L20.5236 8.469C21.4266 8.385 21.6786 8.112 21.6786 7.65C21.6786 6.726 21.1116 6.201 20.0196 6.201C18.9486 6.201 18.3606 6.684 18.2556 7.65H15.0636C15.0636 5.403 16.4916 3.954 19.9776 3.954C23.4636 3.954 24.8916 5.403 24.8916 7.65V12.228C24.8916 13.698 25.0176 14.643 25.2276 15H22.3086C22.0146 14.622 21.8466 14.202 21.8466 13.488C21.2376 14.622 20.2296 15.21 18.4236 15.21ZM19.3686 13.068C20.8386 13.068 21.6786 11.955 21.6786 10.632V10.023C21.5316 10.191 21.1116 10.296 20.5236 10.359L19.3476 10.443C18.1506 10.548 17.6886 11.031 17.6886 11.703C17.6886 12.522 18.1926 13.068 19.3686 13.068ZM31.6841 15.21C28.1141 15.21 26.5391 13.719 26.5391 11.514H29.6681C29.7941 12.564 30.2981 13.131 31.7261 13.131C33.0701 13.131 33.6161 12.606 33.6161 11.934C33.6161 11.325 33.1121 10.989 32.2511 10.863L30.5291 10.632C27.7991 10.233 26.8331 9.33 26.8331 7.44C26.8331 5.445 28.3031 3.954 31.6841 3.954C35.0651 3.954 36.5351 5.445 36.5351 7.482H33.4061C33.3011 6.684 32.9861 6.033 31.6421 6.033C30.4871 6.033 30.0461 6.495 30.0461 7.167C30.0461 7.755 30.3611 8.028 31.0751 8.133L32.7761 8.364C35.3591 8.742 36.8291 9.54 36.8291 11.724C36.8291 13.719 35.2541 15.21 31.6841 15.21ZM43.7189 15.21C40.0859 15.21 38.0489 12.963 38.0489 9.582C38.0489 6.243 40.0229 3.954 43.5929 3.954C47.1629 3.954 49.1369 6.264 49.1369 9.498C49.1369 9.792 49.1159 10.023 49.0739 10.296H41.2619C41.3249 12.123 42.2279 13.068 43.7189 13.068C44.8529 13.068 45.6509 12.48 45.9449 11.514H48.9059C48.4439 13.761 46.7429 15.21 43.7189 15.21ZM43.5929 6.096C42.2909 6.096 41.4929 6.852 41.2619 8.238H45.9239C45.6929 6.852 44.8949 6.096 43.5929 6.096ZM57.0938 15H53.1878L49.3028 4.164H52.6418L55.1408 12.228L57.6398 4.164H60.9788L57.0938 15ZM65.0165 15.21C62.4335 15.21 61.0685 13.929 61.0685 11.934C61.0685 10.254 62.0345 8.889 64.8065 8.658L67.1165 8.469C68.0195 8.385 68.2715 8.112 68.2715 7.65C68.2715 6.726 67.7045 6.201 66.6125 6.201C65.5415 6.201 64.9535 6.684 64.8485 7.65H61.6565C61.6565 5.403 63.0845 3.954 66.5705 3.954C70.0565 3.954 71.4845 5.403 71.4845 7.65V12.228C71.4845 13.698 71.6105 14.643 71.8205 15H68.9015C68.6075 14.622 68.4395 14.202 68.4395 13.488C67.8305 14.622 66.8225 15.21 65.0165 15.21ZM65.9615 13.068C67.4315 13.068 68.2715 11.955 68.2715 10.632V10.023C68.1245 10.191 67.7045 10.296 67.1165 10.359L65.9405 10.443C64.7435 10.548 64.2815 11.031 64.2815 11.703C64.2815 12.522 64.7855 13.068 65.9615 13.068ZM76.765 15H73.552V0.0479997H76.765V15ZM83.2375 15.126C80.5915 15.126 79.7515 14.286 79.7515 11.703V6.411H78.1135V4.164H79.7515V0.887999H82.9435V4.164H85.1695V6.411H82.9435V11.829C82.9435 12.585 83.2795 12.858 84.0355 12.858H85.1695V15C84.6865 15.042 83.7415 15.126 83.2375 15.126Z" fill="black"/>
</svg>
