<svg width="28" height="28" viewBox="0 0 28 28" fill="none" xmlns="http://www.w3.org/2000/svg">
<g clip-path="url(#clip0_15_102)">
<path fill-rule="evenodd" clip-rule="evenodd" d="M9.07083 6.50181C7.93916 7.64165 7.20766 9.29598 6.91249 11.3155C6.88847 11.4807 6.82927 11.6388 6.7389 11.7792C6.64852 11.9196 6.52907 12.0389 6.38862 12.1291C6.24816 12.2194 6.08997 12.2784 5.92474 12.3023C5.75951 12.3262 5.59108 12.3143 5.43083 12.2675C5.10883 12.1741 4.90699 12.4681 4.80549 12.7411C4.67366 13.0958 4.63399 13.6103 4.78683 14.182C4.91983 14.6778 5.38999 15.7103 6.05849 15.6485C6.31921 15.6242 6.58053 15.6883 6.8004 15.8305C7.02027 15.9727 7.1859 16.1847 7.27066 16.4325C8.45599 19.8998 11.4322 22.1666 14 22.1666C16.5678 22.1666 19.544 19.8998 20.7293 16.4325C20.814 16.1839 20.9801 15.9711 21.2007 15.8286C21.4213 15.6861 21.6836 15.6223 21.945 15.6473C22.6135 15.7115 23.0848 14.6778 23.2178 14.182C23.3707 13.6103 23.331 13.0958 23.1992 12.7411C23.0965 12.467 22.8947 12.173 22.5715 12.2675C22.4112 12.3147 22.2426 12.3269 22.0772 12.3033C21.9117 12.2797 21.7533 12.2208 21.6126 12.1306C21.4718 12.0405 21.3521 11.9212 21.2616 11.7807C21.171 11.6403 21.1116 11.482 21.0875 11.3166C20.7923 9.29715 20.0608 7.64165 18.9292 6.50298C17.8173 5.38298 16.2283 4.66665 14 4.66665C11.7728 4.66665 10.1827 5.38415 9.07083 6.50181ZM7.41533 4.85681C9.01366 3.24915 11.2257 2.33331 14 2.33331C16.7755 2.33331 18.9852 3.24915 20.5847 4.85798C21.9333 6.21481 22.778 7.99631 23.2097 9.95981C23.2738 9.97148 23.338 9.98665 23.401 10.0041C24.4148 10.2748 25.0682 11.0728 25.3867 11.9291C25.7052 12.7878 25.7355 13.8016 25.4718 14.7863C25.102 16.1665 24.1127 17.528 22.6695 17.8955C21.0922 21.6883 17.6003 24.5 14 24.5C10.3985 24.5 6.90666 21.686 5.33049 17.8943C3.88966 17.5245 2.90266 16.1641 2.53283 14.7863C2.26916 13.8016 2.29949 12.7878 2.61799 11.928C2.93649 11.0728 3.58983 10.2748 4.60366 10.003C4.66549 9.98665 4.72733 9.97265 4.79033 9.96098C5.22199 7.99631 6.06666 6.21481 7.41533 4.85681Z" fill="#D3D3D3"/>
</g>
<defs>
<clipPath id="clip0_15_102">
<rect width="28" height="28" fill="white"/>
</clipPath>
</defs>
</svg>
